<mxfile host="app.diagrams.net" modified="2024-03-02T01:55:50.936Z" agent="Mozilla/5.0 (Macintosh; Intel Mac OS X 10_15_7) AppleWebKit/605.1.15 (KHTML, like Gecko) Version/17.1 Safari/605.1.15" version="24.0.0" etag="7poxJgZ_SDCC7wBDklWE" type="github">
  <diagram name="Page-1" id="u1gFBwl-D4ZWt-Z-MvIf">
    <mxGraphModel>
      <root>
        <mxCell id="0" />
        <mxCell id="1" parent="0" />
      </root>
    </mxGraphModel>
  </diagram>
</mxfile>
